<svg xmlns="http://www.w3.org/2000/svg" viewBox="0 0 640 320" role="img" aria-label="A table diagram showing caption, thead with th cells, tbody with td cells and tfoot.">
  <title>The parts of a data table</title>
  <rect width="640" height="320" fill="#ffffff"/>
  <text x="320" y="38" text-anchor="middle" font-family="system-ui, sans-serif" font-size="17" fill="#334155">&lt;caption&gt; Opening hours &lt;/caption&gt;</text>
  <g font-family="ui-monospace, Menlo, monospace" font-size="15">
    <rect x="40" y="56" width="560" height="52" fill="#1e293b"/>
    <text x="130" y="88" fill="#fff" text-anchor="middle">&lt;th scope="col"&gt;</text>
    <text x="320" y="88" fill="#fff" text-anchor="middle">&lt;th scope="col"&gt;</text>
    <text x="510" y="88" fill="#fff" text-anchor="middle">&lt;th scope="col"&gt;</text>
    <g fill="#f1f5f9" stroke="#cbd5e1">
      <rect x="40" y="108" width="180" height="46"/><rect x="220" y="108" width="190" height="46"/><rect x="410" y="108" width="190" height="46"/>
      <rect x="40" y="154" width="180" height="46"/><rect x="220" y="154" width="190" height="46"/><rect x="410" y="154" width="190" height="46"/>
    </g>
    <text x="130" y="137" text-anchor="middle" fill="#0f172a">&lt;th scope="row"&gt;</text>
    <text x="315" y="137" text-anchor="middle" fill="#334155">&lt;td&gt;</text><text x="505" y="137" text-anchor="middle" fill="#334155">&lt;td&gt;</text>
    <text x="130" y="183" text-anchor="middle" fill="#0f172a">&lt;th scope="row"&gt;</text>
    <text x="315" y="183" text-anchor="middle" fill="#334155">&lt;td&gt;</text><text x="505" y="183" text-anchor="middle" fill="#334155">&lt;td&gt;</text>
    <rect x="40" y="200" width="560" height="44" fill="#e2e8f0"/><text x="320" y="228" text-anchor="middle" fill="#0f172a">&lt;tfoot&gt; — totals or summary</text>
  </g>
  <g font-family="system-ui, sans-serif" font-size="14" fill="#64748b">
    <text x="40" y="278">scope="col" says "this heading describes the column below".</text>
    <text x="40" y="300">scope="row" says "this heading describes the row beside it".</text>
  </g>
</svg>
